<?xml version="1.0" encoding="UTF-8" standalone="no"?>
<svg xmlns:inkscape="http://www.inkscape.org/namespaces/inkscape" xmlns:sodipodi="http://sodipodi.sourceforge.net/DTD/sodipodi-0.dtd" xmlns="http://www.w3.org/2000/svg" xmlns:svg="http://www.w3.org/2000/svg" version="1.1" id="svg1" width="465" height="293" viewBox="-5 -5 465 292.99999">
  <defs id="defs1">
    <rect x="555.78595" y="412.95035" width="340.82547" height="51.618793" id="rect105"></rect>
  </defs>
  <g id="g1" style="display:inline" transform="translate(-541.25938,-219.29353)">
    <g id="g104" style="display:inline;fill:#5d6464;fill-opacity:1" transform="matrix(0.98064612,0,0,1,53.509312,21.213204)">
      <path style="display:inline;fill:#5d6464;fill-opacity:1" d="m 663.68013,240.96775 c -1.65,-1.0244 -5.68274,-5.42185 -8.96164,-9.77211 -3.2789,-4.35027 -7.23205,-9.48457 -8.78477,-11.40957 -6.43406,-7.97663 -6.40393,-7.87751 -3.22466,-10.60937 11.58607,-10.52988 44.07636,-10.89063 48.47107,-10.89063 14.7517,-1.06769 28.52365,2.10795 42,7.48723 7.06246,2.81681 8.36996,4.39667 6.55053,7.91505 -1.37345,2.65596 -14.51431,18.05324 -17.49536,22.81199 -0.85054,1.35775 -1.71358,2.55851 -2.06297,3 -1.49902,1.89415 -6.2112,3.09468 -29.23262,3.20924 -22.04807,0.10971 -24.53306,-0.0491 -27.25958,-1.74183 z" id="path55"></path>
      <path style="display:inline;fill:#5d6464;fill-opacity:1" d="m 753.51638,301.38257 c -0.64007,-0.73009 -3.74647,-6.45047 -6.90312,-12.71197 -3.15665,-6.26149 -6.51639,-12.50953 -7.46609,-13.88453 -2.45954,-3.56097 -12.12526,-22.88952 -12.42927,-24.8548 -0.13997,-0.90486 0.0205,-1.8702 0.35668,-2.1452 0.33615,-0.275 1.95864,-2.525 3.60555,-5 1.64691,-2.475 3.23227,-4.725 3.52303,-5 0.48671,-0.46034 6.50803,-8.18626 8.18334,-10.5 3.52763,-4.87196 7.25961,-8.40014 9.47296,-8.95565 6.15692,-1.54529 25.13869,15.19895 42.45741,37.45261 6.77799,8.70938 10.82445,14.86997 10.83969,16.50304 0.0292,3.13312 -18.54324,17.63862 -30.48421,23.80884 -12.35253,6.38288 -18.78608,7.99086 -21.15597,5.28766 z" id="path54"></path>
      <path style="display:inline;fill:#5d6464;fill-opacity:1" d="m 616.93882,306.79385 c -4.80772,-0.96686 -9.98272,-2.21739 -11.5,-2.77894 -1.51728,-0.56154 -6.13369,-2.01277 -10.25869,-3.22495 -4.125,-1.21217 -9.75,-3.23022 -12.5,-4.48454 -2.75,-1.25432 -5.98948,-2.58232 -7.19885,-2.95112 -3.51736,-1.07261 -3.75231,-4.10163 -0.76502,-9.86276 4.54867,-8.77231 29.20532,-54.44412 54.58729,-64.70547 2.70487,0 3.75025,1.01387 11.34187,11 2.71778,3.575 5.19904,6.725 5.5139,7 0.31487,0.275 2.01743,2.35727 3.78347,4.62727 4.78836,6.15476 5.33675,8.25632 3.2286,12.37273 -0.98585,1.925 -2.55824,5.3 -3.4942,7.5 -0.93595,2.2 -2.92626,6.7 -4.4229,10 -5.72569,12.62481 -8.99469,20.19522 -11.02364,25.52876 -2.72856,7.17262 -5.6964,12.00132 -7.28582,11.8541 -0.69559,-0.0644 -5.19829,-0.90821 -10.00601,-1.87508 z" id="path53"></path>
      <path style="display:inline;fill:#5d6464;fill-opacity:1" d="m 658.68013,314.2283 c -14.57588,-1.41064 -18.54083,-2.42878 -18.04745,-4.63435 1.39947,-6.25595 12.88182,-32.43933 17.95173,-44.76751 3.46656,-8.16075 4.79181,-9.79123 9.09572,-11.19069 3.90056,-1.26831 43.23104,-0.9278 46.20295,0.4 3.39289,1.5159 5.18463,4.91648 6.26378,6.9413 6.1738,11.58402 14.44882,26.6137 19.78904,37.80902 0.67278,1.41043 4.09456,6.51606 3.17226,8.16411 -1.28031,2.2878 -8.29944,4.48884 -18.42803,5.77863 -4.95,0.63034 -11.84446,1.50598 -15.32102,1.94587 -9.95816,1.26001 -35.35891,1.03628 -50.67898,-0.44638 z" id="path52"></path>
    </g>
    <g id="g105" style="display:inline;fill:#1c2930;fill-opacity:1" transform="translate(8.4852813,-5.6568542)">
      <path id="path49" style="display:inline;fill:#1c2930;fill-opacity:1" d="m 917.09543,230.78412 c -19.46098,0 -35.26546,11.20897 -45.63086,32.36133 -64.78957,138.93159 -251.6867,73.39122 -268.25977,64.60156 -4.36589,-2.22731 -4.16079,-2.28582 -11.57422,3.26758 -5.89772,4.41801 -17.59779,10.41276 -21.8164,11.17774 -3.71869,0.67433 -4.97706,1.98099 -3.27149,3.39648 0.74155,0.61543 7.17371,2.53668 14.29297,4.26953 11.2326,2.73399 14.10733,3.07738 21.74805,2.59961 10.04403,-0.62804 10.7037,-0.16511 8.58008,6.03516 -0.71418,2.08518 -1.33396,4.01601 -1.37696,4.29101 -0.043,0.275 -1.75003,4.02833 -3.79297,8.33985 -2.04295,4.31153 -3.71484,8.26813 -3.71484,8.79101 0,0.52289 -0.95276,2.81717 -2.11719,5.09961 -1.16443,2.28249 -2.33259,5.52783 -2.59765,7.21094 -0.26506,1.68312 -0.88731,3.8178 -1.38282,4.74414 -1.03974,1.94375 -1.22867,14.15414 -0.23437,15.14844 0.36666,0.36667 10.88596,0.66601 23.37695,0.66601 24.726,0 25.1331,-0.0911 24.83008,-5.62109 -0.29745,-5.42841 0.14211,-6.12314 7.875,-12.44727 9.32358,-7.62504 23.44111,-21.75008 25.9043,-25.91992 1.93486,-3.27542 4.97424,-4.78356 6.52343,-3.23437 0.63467,0.63466 -0.12722,3.16062 -2.17773,7.22265 -1.73432,3.43568 -2.78083,6.55929 -2.32617,6.93946 15.12816,12.64962 104.25601,-1.18507 104.52148,-5.46485 0.11353,-1.83076 0.0658,-0.42792 0.20508,-4.22461 0.16083,-4.38286 3.54043,-4.0569 6.85352,0.66016 6.81582,9.7041 13.13082,24.16557 14.44922,33.08984 0.28439,1.925 1.15501,4.7375 1.93359,6.25 l 1.41601,2.75 h 24.35157 c 28.62795,0 27.56857,0.38272 25.77343,-9.29883 -0.63229,-3.41017 -2.74081,-10.70117 -4.68554,-16.20117 -1.94476,-5.5 -3.71288,-10.72462 -3.92969,-11.61133 -0.2168,-0.88671 -1.76096,-4.31929 -3.43164,-7.6289 -1.67069,-3.30961 -6.67974,-13.70956 -8.54297,-16.96485 -2.46296,-4.18129 -3.12623,-6.14295 -2.3789,-7.04492 0.56962,-0.6875 1.41261,-1.25 1.87304,-1.25 1.09217,0 7.71919,10.10592 11.02344,10.98828 l 3.91016,1.04493 7.08984,-2.47071 c 14.15131,-8.22116 23.76621,-16.69595 47.39453,-41.76953 10.2842,-10.91322 14.76337,-13.22298 27.60938,-14.24609 9.89264,-0.78789 19.05151,-5.25341 23.34961,-11.38477 4.0277,-5.74566 5.23493,-19.78938 -0.33594,-29.62109 -1.85741,-3.27805 -5.52016,-8.11379 -8.13867,-10.7461 -8.80318,-8.84958 -25.17773,-13.79492 -33.16797,-13.79492 z m 13.71679,22.24805 c 4.55316,5.4e-4 8.24398,3.71672 8.24414,8.30078 -1.6e-4,4.58406 -3.69098,8.30024 -8.24414,8.30078 -4.55392,5.5e-4 -8.24593,-3.71595 -8.24609,-8.30078 1.6e-4,-4.58483 3.69217,-8.30133 8.24609,-8.30078 z"></path>
      <path style="display:inline;fill:#1c2930;fill-opacity:1" d="m 648.46953,412.03278 c -2.04688,0.0381 -1.0893,-6.95449 -0.70497,-7.62425 1.02356,-1.78381 12.2748,-10.30213 17.24979,-15.47414 5.17791,-5.38295 22.77077,-3.88544 28.41539,16.84351 1.29972,6.02025 0.62765,6.20904 -22.10355,6.20904 h -20.39226 z" id="path51"></path>
    </g>
    <path id="text111" style="font-size:33.3333px;font-family:Consolas;-inkscape-font-specification:'Consolas, Normal';display:inline;stroke:#010201;stroke-width:1.399" d="m 556.65613,499.62267 q -2.55533,1.05794 -5.35481,1.05794 -4.50846,0 -6.93359,-2.68554 -2.40885,-2.70182 -2.40885,-7.97525 0,-2.55534 0.66732,-4.6224 0.66732,-2.06705 1.90429,-3.49934 1.23698,-1.44857 2.99479,-2.22982 1.75781,-0.78125 3.9388,-0.78125 1.48112,0 2.75065,0.26042 1.26953,0.24414 2.4414,0.76497 v 2.84831 q -1.1556,-0.63477 -2.39257,-0.96029 -1.23698,-0.34179 -2.70182,-0.34179 -1.4974,0 -2.7181,0.56966 -1.20443,0.55338 -2.05078,1.6276 -0.84635,1.05794 -1.30208,2.60416 -0.45573,1.52995 -0.45573,3.49935 0,4.13411 1.67643,6.23372 1.67643,2.0996 4.91536,2.0996 1.36719,0 2.62044,-0.30924 1.25325,-0.32552 2.40885,-0.89518 z m 5.40364,-15.5436 h 2.58789 l 0.0814,3.01106 q 1.44857,-1.74153 2.84831,-2.52278 1.41601,-0.78125 2.8483,-0.78125 2.53906,0 3.84114,1.64388 1.31836,1.64388 1.2207,4.8828 h -2.86458 q 0.0488,-2.14843 -0.63476,-3.10872 -0.66732,-0.97656 -1.9694,-0.97656 -0.56966,0 -1.1556,0.21159 -0.56966,0.19531 -1.18815,0.65104 -0.60221,0.43945 -1.2858,1.13932 -0.6836,0.69987 -1.46485,1.69271 v 10.49804 h -2.86458 z m 31.46156,7.30793 q 0,0.60221 -0.0163,1.00912 -0.0163,0.4069 -0.0488,0.76497 h -11.4746 q 0,2.50651 1.39974,3.85742 1.39974,1.33463 4.03645,1.33463 0.71615,0 1.43229,-0.0488 0.71615,-0.0651 1.38346,-0.16276 0.66732,-0.0976 1.26953,-0.21159 0.61849,-0.1302 1.13933,-0.27669 v 2.32747 q -1.1556,0.32552 -2.62044,0.52084 -1.44857,0.21159 -3.01107,0.21159 -2.09961,0 -3.61328,-0.56967 -1.51367,-0.56966 -2.49023,-1.64387 -0.96028,-1.0905 -1.43229,-2.653 -0.45573,-1.57877 -0.45573,-3.56445 0,-1.72526 0.48828,-3.2552 0.50456,-1.54622 1.44857,-2.70182 0.96028,-1.17188 2.34375,-1.85547 1.38346,-0.68359 3.14127,-0.68359 1.70898,0 3.02734,0.53711 1.31836,0.53711 2.21354,1.52994 0.91146,0.97656 1.36719,2.39258 0.472,1.39974 0.472,3.14127 z m -2.94596,-0.4069 q 0.0488,-1.09049 -0.21159,-1.98567 -0.26041,-0.91146 -0.8138,-1.5625 -0.53711,-0.65104 -1.35091,-1.00912 -0.8138,-0.37434 -1.88802,-0.37434 -0.92773,0 -1.6927,0.35807 -0.76498,0.35807 -1.31836,1.00911 -0.55339,0.65104 -0.89518,1.5625 -0.3418,0.91146 -0.42318,2.00195 z m 2.0345,-13.55793 -5.19205,3.9388 h -2.83203 l 3.92253,-3.9388 z m -15.49477,6.6569 z m 31.429,16.34113 -0.0651,-2.19727 q -1.33464,1.31836 -2.7181,1.9043 -1.36718,0.58594 -2.88085,0.58594 -1.39974,0 -2.39258,-0.35808 -0.99284,-0.35807 -1.64388,-0.97656 -0.63476,-0.63476 -0.94401,-1.48112 -0.29297,-0.84635 -0.29297,-1.83919 0,-2.45768 1.82292,-3.84114 1.83919,-1.39974 5.41992,-1.39974 h 3.38541 v -1.43229 q 0,-1.44857 -0.92773,-2.31119 -0.92774,-0.87891 -2.83203,-0.87891 -1.38347,0 -2.73438,0.30924 -1.33463,0.30925 -2.76692,0.87891 v -2.55534 q 0.53711,-0.19531 1.18815,-0.37435 0.66732,-0.19531 1.39974,-0.34179 0.73242,-0.14649 1.52994,-0.22787 0.79753,-0.0977 1.61133,-0.0977 1.48112,0 2.66927,0.32552 1.18815,0.32552 2.00195,0.99284 0.83008,0.66731 1.26953,1.67643 0.43945,1.00911 0.43945,2.3763 v 11.26301 z m -0.30924,-7.43815 h -3.597 q -1.05794,0 -1.82292,0.21159 -0.76497,0.21159 -1.25325,0.60221 -0.48828,0.39063 -0.73242,0.94401 -0.22787,0.53711 -0.22787,1.22071 0,0.472 0.14649,0.91145 0.14648,0.42318 0.472,0.76498 0.32552,0.32552 0.84635,0.52083 0.52084,0.19531 1.26953,0.19531 0.97657,0 2.22982,-0.58594 1.26953,-0.60221 2.66927,-1.88801 z m 21.30532,7.21028 q -0.96029,0.24414 -1.98568,0.3418 -1.02539,0.11393 -2.08333,0.11393 -3.07617,0 -4.58984,-1.38346 -1.51367,-1.39974 -1.51367,-4.2806 v -8.52863 h -4.57356 v -2.3763 h 4.57356 v -4.49219 l 2.83203,-0.73242 v 5.22461 h 7.34049 v 2.3763 h -7.34049 v 8.30077 q 0,1.75781 0.92773,2.63672 0.94401,0.86263 2.76693,0.86263 0.78125,0 1.70898,-0.11394 0.92773,-0.13021 1.93685,-0.39062 z m 10.7259,-13.76952 h -4.83398 v -2.34374 h 7.69856 v 13.9811 h 4.86653 v 2.36003 h -13.1022 v -2.36003 h 5.37109 z m 0.99284,-9.19595 q 0.472,0 0.8789,0.17904 0.4069,0.16276 0.69987,0.472 0.30924,0.30924 0.472,0.71615 0.17904,0.39062 0.17904,0.86262 0,0.45573 -0.17904,0.86263 -0.16276,0.4069 -0.472,0.71615 -0.29297,0.30924 -0.69987,0.48828 -0.4069,0.16276 -0.8789,0.16276 -0.47201,0 -0.87891,-0.16276 -0.4069,-0.17904 -0.71615,-0.48828 -0.29296,-0.30925 -0.472,-0.71615 -0.16276,-0.4069 -0.16276,-0.86263 0,-0.472 0.16276,-0.86262 0.17904,-0.40691 0.472,-0.71615 0.30925,-0.30924 0.71615,-0.472 0.4069,-0.17904 0.87891,-0.17904 z m 25.99281,14.89256 q 0,1.9043 -0.53711,3.49935 -0.53711,1.57877 -1.54622,2.7181 -1.00912,1.12304 -2.45768,1.75781 -1.44857,0.61849 -3.28776,0.61849 -1.75781,0 -3.15755,-0.53711 -1.38346,-0.55339 -2.36002,-1.61133 -0.96029,-1.05794 -1.48112,-2.62044 -0.50456,-1.5625 -0.50456,-3.597 0,-1.9043 0.53711,-3.4668 0.53711,-1.57877 1.54622,-2.70182 1.00912,-1.13932 2.45768,-1.75781 1.44857,-0.63476 3.28776,-0.63476 1.75781,0 3.14127,0.55338 1.39974,0.53711 2.36003,1.59505 0.97656,1.04167 1.48112,2.60417 0.52083,1.5625 0.52083,3.58072 z m -2.89713,0.13021 q 0,-1.51367 -0.3418,-2.63671 -0.32552,-1.13933 -0.94401,-1.88802 -0.61849,-0.76498 -1.51367,-1.13933 -0.87891,-0.39062 -1.9694,-0.39062 -1.26953,0 -2.18099,0.50456 -0.89518,0.48828 -1.48112,1.31835 -0.56966,0.83008 -0.84635,1.93685 -0.26042,1.0905 -0.26042,2.29492 0,1.51367 0.32553,2.65299 0.34179,1.13933 0.96028,1.9043 0.61849,0.7487 1.4974,1.13932 0.8789,0.37435 1.98567,0.37435 1.26953,0 2.16471,-0.48828 0.91146,-0.50456 1.48112,-1.33464 0.58594,-0.83007 0.84635,-1.92057 0.2767,-1.10677 0.2767,-2.32747 z m 6.99868,-8.17056 h 2.52278 l 0.11394,2.63671 q 0.71614,-0.84635 1.38346,-1.39974 0.66731,-0.56966 1.30208,-0.91145 0.65104,-0.3418 1.31836,-0.47201 0.66731,-0.14648 1.38346,-0.14648 2.52278,0 3.80859,1.49739 1.30208,1.48112 1.30208,4.47591 v 10.6608 H 681.656 v -10.43294 q 0,-1.92057 -0.71614,-2.83202 -0.71615,-0.92774 -2.13216,-0.92774 -0.52083,0 -1.02539,0.16276 -0.48828,0.14649 -1.02539,0.53711 -0.53711,0.37435 -1.17187,1.02539 -0.61849,0.65104 -1.39974,1.6276 v 10.83984 h -2.83203 z m 35.82355,8.51236 q 0,-2.08333 0.56966,-3.69466 0.56966,-1.6276 1.61132,-2.73437 1.05795,-1.12305 2.52279,-1.69271 1.48112,-0.58594 3.28776,-0.58594 0.78125,0 1.52994,0.0977 0.76498,0.0977 1.4974,0.30924 v -6.86848 h 2.8483 v 22.99803 h -2.53906 l -0.0977,-3.09245 q -1.18815,1.72526 -2.57162,2.55534 -1.38346,0.83008 -2.99479,0.83008 -1.39973,0 -2.47395,-0.58594 -1.05794,-0.58594 -1.77409,-1.64388 -0.69987,-1.07422 -1.05794,-2.57161 -0.35807,-1.4974 -0.35807,-3.32031 z m 2.89713,-0.17904 q 0,2.96224 0.86263,4.42708 0.8789,1.44857 2.47396,1.44857 1.07421,0 2.26236,-0.96029 1.20443,-0.96028 2.52279,-2.8483 v -7.58463 q -0.69987,-0.32552 -1.54623,-0.48828 -0.84635,-0.17904 -1.67643,-0.17904 -2.31119,0 -3.61327,1.4974 -1.28581,1.49739 -1.28581,4.68749 z m 30.06181,-1.02539 q 0,0.60221 -0.0163,1.00912 -0.0163,0.4069 -0.0488,0.76497 h -11.4746 q 0,2.50651 1.39974,3.85742 1.39974,1.33463 4.03645,1.33463 0.71615,0 1.43229,-0.0488 0.71615,-0.0651 1.38347,-0.16276 0.66731,-0.0976 1.26953,-0.21159 0.61848,-0.1302 1.13932,-0.27669 v 2.32747 q -1.1556,0.32552 -2.62044,0.52084 -1.44857,0.21159 -3.01107,0.21159 -2.09961,0 -3.61328,-0.56967 -1.51367,-0.56966 -2.49023,-1.64387 -0.96028,-1.0905 -1.43229,-2.653 -0.45573,-1.57877 -0.45573,-3.56445 0,-1.72526 0.48828,-3.2552 0.50456,-1.54622 1.44857,-2.70182 0.96029,-1.17188 2.34375,-1.85547 1.38346,-0.68359 3.14127,-0.68359 1.70898,0 3.02734,0.53711 1.31836,0.53711 2.21354,1.52994 0.91146,0.97656 1.36719,2.39258 0.472,1.39974 0.472,3.14127 z m -2.94596,-0.4069 q 0.0488,-1.09049 -0.21159,-1.98567 -0.26041,-0.91146 -0.8138,-1.5625 -0.53711,-0.65104 -1.35091,-1.00912 -0.8138,-0.37434 -1.88802,-0.37434 -0.92773,0 -1.6927,0.35807 -0.76498,0.35807 -1.31836,1.00911 -0.55339,0.65104 -0.89518,1.5625 -0.3418,0.91146 -0.42318,2.00195 z m 38.73694,4.98047 q 0,0.86262 -0.29297,1.54622 -0.29296,0.68359 -0.79752,1.2207 -0.50456,0.52083 -1.17187,0.89518 -0.66732,0.37435 -1.43229,0.61849 -0.7487,0.24414 -1.54623,0.35807 -0.79752,0.11394 -1.5625,0.11394 -1.66015,0 -3.05989,-0.14649 -1.38346,-0.14648 -2.7181,-0.472 v -2.60417 q 1.4323,0.4069 2.84831,0.61849 1.41601,0.21159 2.81575,0.21159 2.03451,0 3.01107,-0.55339 0.97656,-0.55338 0.97656,-1.57877 0,-0.43945 -0.16276,-0.78125 -0.14649,-0.35807 -0.55339,-0.66732 -0.4069,-0.32552 -1.26953,-0.66731 -0.84635,-0.3418 -2.32747,-0.78125 -1.10677,-0.32552 -2.05078,-0.73242 -0.92773,-0.42318 -1.61132,-0.99284 -0.6836,-0.56966 -1.07422,-1.33464 -0.39063,-0.76497 -0.39063,-1.80663 0,-0.6836 0.30925,-1.4974 0.32552,-0.8138 1.09049,-1.51367 0.76497,-0.69987 2.06706,-1.1556 1.30208,-0.472 3.2552,-0.472 0.96029,0 2.13216,0.11393 1.17188,0.0977 2.44141,0.35807 v 2.52279 q -1.33464,-0.32552 -2.53906,-0.47201 -1.18815,-0.16276 -2.06706,-0.16276 -1.05794,0 -1.79036,0.16276 -0.71615,0.16276 -1.17188,0.45573 -0.43945,0.27669 -0.63476,0.66732 -0.19531,0.37435 -0.19531,0.8138 0,0.43945 0.16276,0.79752 0.17903,0.35808 0.63476,0.69987 0.47201,0.32552 1.30208,0.66732 0.83008,0.32552 2.16471,0.71615 1.44857,0.42317 2.44141,0.89518 0.99284,0.45573 1.61133,1.02539 0.61848,0.56966 0.8789,1.2858 0.27669,0.71615 0.27669,1.62761 z m 10.95378,-9.53776 h -4.83398 v -2.34374 h 7.69856 v 13.9811 h 4.86653 v 2.36003 h -13.1022 v -2.36003 h 5.37109 z m 0.99283,-9.19595 q 0.47201,0 0.87891,0.17904 0.4069,0.16276 0.69987,0.472 0.30924,0.30924 0.472,0.71615 0.17904,0.39062 0.17904,0.86262 0,0.45573 -0.17904,0.86263 -0.16276,0.4069 -0.472,0.71615 -0.29297,0.30924 -0.69987,0.48828 -0.4069,0.16276 -0.87891,0.16276 -0.472,0 -0.8789,-0.16276 -0.4069,-0.17904 -0.71615,-0.48828 -0.29297,-0.30925 -0.472,-0.71615 -0.16276,-0.4069 -0.16276,-0.86263 0,-0.472 0.16276,-0.86262 0.17903,-0.40691 0.472,-0.71615 0.30925,-0.30924 0.71615,-0.472 0.4069,-0.17904 0.8789,-0.17904 z m 24.93485,22.96547 q -0.96028,0.24414 -1.98567,0.3418 -1.02539,0.11393 -2.08333,0.11393 -3.07617,0 -4.58984,-1.38346 -1.51367,-1.39974 -1.51367,-4.2806 v -8.52863 h -4.57357 v -2.3763 h 4.57357 v -4.49219 l 2.83202,-0.73242 v 5.22461 h 7.34049 v 2.3763 h -7.34049 v 8.30077 q 0,1.75781 0.92774,2.63672 0.94401,0.86263 2.76692,0.86263 0.78125,0 1.70899,-0.11394 0.92773,-0.13021 1.93684,-0.39062 z m 18.96158,-8.80533 q 0,0.60221 -0.0163,1.00912 -0.0163,0.4069 -0.0488,0.76497 h -11.4746 q 0,2.50651 1.39974,3.85742 1.39973,1.33463 4.03645,1.33463 0.71615,0 1.43229,-0.0488 0.71615,-0.0651 1.38346,-0.16276 0.66732,-0.0976 1.26953,-0.21159 0.61849,-0.1302 1.13932,-0.27669 v 2.32747 q -1.15559,0.32552 -2.62044,0.52084 -1.44856,0.21159 -3.01106,0.21159 -2.09961,0 -3.61328,-0.56967 -1.51367,-0.56966 -2.49023,-1.64387 -0.96029,-1.0905 -1.43229,-2.653 -0.45573,-1.57877 -0.45573,-3.56445 0,-1.72526 0.48828,-3.2552 0.50456,-1.54622 1.44857,-2.70182 0.96028,-1.17188 2.34375,-1.85547 1.38346,-0.68359 3.14127,-0.68359 1.70898,0 3.02734,0.53711 1.31836,0.53711 2.21354,1.52994 0.91146,0.97656 1.36719,2.39258 0.472,1.39974 0.472,3.14127 z m -2.94596,-0.4069 q 0.0488,-1.09049 -0.21159,-1.98567 -0.26042,-0.91146 -0.8138,-1.5625 -0.53711,-0.65104 -1.35091,-1.00912 -0.8138,-0.37434 -1.88802,-0.37434 -0.92773,0 -1.69271,0.35807 -0.76497,0.35807 -1.31835,1.00911 -0.55339,0.65104 -0.89519,1.5625 -0.34179,0.91146 -0.42317,2.00195 z m 31.36392,-4.55729 h -4.83398 v -2.34374 h 7.69856 v 13.9811 h 4.86653 v 2.36003 h -13.1022 v -2.36003 h 5.37109 z m 0.99283,-9.19595 q 0.47201,0 0.87891,0.17904 0.4069,0.16276 0.69987,0.472 0.30924,0.30924 0.472,0.71615 0.17904,0.39062 0.17904,0.86262 0,0.45573 -0.17904,0.86263 -0.16276,0.4069 -0.472,0.71615 -0.29297,0.30924 -0.69987,0.48828 -0.4069,0.16276 -0.87891,0.16276 -0.472,0 -0.8789,-0.16276 -0.4069,-0.17904 -0.71615,-0.48828 -0.29296,-0.30925 -0.472,-0.71615 -0.16276,-0.4069 -0.16276,-0.86263 0,-0.472 0.16276,-0.86262 0.17904,-0.40691 0.472,-0.71615 0.30925,-0.30924 0.71615,-0.472 0.4069,-0.17904 0.8789,-0.17904 z m 11.76758,6.85221 h 2.52278 l 0.11393,2.63671 q 0.71615,-0.84635 1.38347,-1.39974 0.66731,-0.56966 1.30208,-0.91145 0.65104,-0.3418 1.31836,-0.47201 0.66731,-0.14648 1.38346,-0.14648 2.52278,0 3.80859,1.49739 1.30208,1.48112 1.30208,4.47591 v 10.6608 h -2.83203 v -10.43294 q 0,-1.92057 -0.71614,-2.83202 -0.71615,-0.92774 -2.13216,-0.92774 -0.52083,0 -1.02539,0.16276 -0.48828,0.14649 -1.02539,0.53711 -0.53711,0.37435 -1.17187,1.02539 -0.61849,0.65104 -1.39974,1.6276 v 10.83984 h -2.83203 z m 31.49409,16.11326 q -0.96029,0.24414 -1.98568,0.3418 -1.02539,0.11393 -2.08333,0.11393 -3.07617,0 -4.58984,-1.38346 -1.51367,-1.39974 -1.51367,-4.2806 v -8.52863 h -4.57356 v -2.3763 h 4.57356 v -4.49219 l 2.83203,-0.73242 v 5.22461 h 7.34049 v 2.3763 h -7.34049 v 8.30077 q 0,1.75781 0.92773,2.63672 0.94401,0.86263 2.76693,0.86263 0.78125,0 1.70898,-0.11394 0.92773,-0.13021 1.93685,-0.39062 z m 18.96157,-8.80533 q 0,0.60221 -0.0163,1.00912 -0.0163,0.4069 -0.0488,0.76497 h -11.4746 q 0,2.50651 1.39974,3.85742 1.39974,1.33463 4.03645,1.33463 0.71615,0 1.43229,-0.0488 0.71615,-0.0651 1.38347,-0.16276 0.66731,-0.0976 1.26953,-0.21159 0.61849,-0.1302 1.13932,-0.27669 v 2.32747 q -1.1556,0.32552 -2.62044,0.52084 -1.44857,0.21159 -3.01107,0.21159 -2.0996,0 -3.61327,-0.56967 -1.51368,-0.56966 -2.49024,-1.64387 -0.96028,-1.0905 -1.43229,-2.653 -0.45573,-1.57877 -0.45573,-3.56445 0,-1.72526 0.48828,-3.2552 0.50456,-1.54622 1.44857,-2.70182 0.96029,-1.17188 2.34375,-1.85547 1.38346,-0.68359 3.14127,-0.68359 1.70898,0 3.02734,0.53711 1.31836,0.53711 2.21354,1.52994 0.91146,0.97656 1.36719,2.39258 0.472,1.39974 0.472,3.14127 z m -2.94596,-0.4069 q 0.0488,-1.09049 -0.21159,-1.98567 -0.26041,-0.91146 -0.8138,-1.5625 -0.53711,-0.65104 -1.35091,-1.00912 -0.8138,-0.37434 -1.88802,-0.37434 -0.92773,0 -1.6927,0.35807 -0.76498,0.35807 -1.31836,1.00911 -0.55339,0.65104 -0.89518,1.5625 -0.3418,0.91146 -0.42318,2.00195 z m 8.13802,-6.90103 h 2.58789 l 0.0814,3.01106 q 1.44857,-1.74153 2.84831,-2.52278 1.41601,-0.78125 2.8483,-0.78125 2.53906,0 3.84114,1.64388 1.31836,1.64388 1.2207,4.8828 h -2.86458 q 0.0488,-2.14843 -0.63476,-3.10872 -0.66732,-0.97656 -1.9694,-0.97656 -0.56966,0 -1.1556,0.21159 -0.56966,0.19531 -1.18815,0.65104 -0.60221,0.43945 -1.2858,1.13932 -0.6836,0.69987 -1.46485,1.69271 v 10.49804 h -2.86458 z m 17.65947,0 h 2.52278 l 0.11393,2.63671 q 0.71615,-0.84635 1.38347,-1.39974 0.66731,-0.56966 1.30208,-0.91145 0.65104,-0.3418 1.31836,-0.47201 0.66731,-0.14648 1.38346,-0.14648 2.52278,0 3.80859,1.49739 1.30208,1.48112 1.30208,4.47591 v 10.6608 h -2.83203 v -10.43294 q 0,-1.92057 -0.71614,-2.83202 -0.71615,-0.92774 -2.13216,-0.92774 -0.52083,0 -1.02539,0.16276 -0.48828,0.14649 -1.02539,0.53711 -0.53711,0.37435 -1.17187,1.02539 -0.61849,0.65104 -1.39974,1.6276 v 10.83984 h -2.83203 z m 32.12888,7.30793 q 0,0.60221 -0.0163,1.00912 -0.0163,0.4069 -0.0488,0.76497 h -11.4746 q 0,2.50651 1.39974,3.85742 1.39974,1.33463 4.03645,1.33463 0.71615,0 1.43229,-0.0488 0.71615,-0.0651 1.38346,-0.16276 0.66732,-0.0976 1.26953,-0.21159 0.61849,-0.1302 1.13933,-0.27669 v 2.32747 q -1.1556,0.32552 -2.62044,0.52084 -1.44857,0.21159 -3.01107,0.21159 -2.09961,0 -3.61328,-0.56967 -1.51367,-0.56966 -2.49023,-1.64387 -0.96028,-1.0905 -1.43229,-2.653 -0.45573,-1.57877 -0.45573,-3.56445 0,-1.72526 0.48828,-3.2552 0.50456,-1.54622 1.44857,-2.70182 0.96028,-1.17188 2.34375,-1.85547 1.38346,-0.68359 3.14127,-0.68359 1.70898,0 3.02734,0.53711 1.31836,0.53711 2.21354,1.52994 0.91146,0.97656 1.36719,2.39258 0.472,1.39974 0.472,3.14127 z m -2.94596,-0.4069 q 0.0488,-1.09049 -0.21159,-1.98567 -0.26041,-0.91146 -0.8138,-1.5625 -0.53711,-0.65104 -1.35091,-1.00912 -0.8138,-0.37434 -1.88802,-0.37434 -0.92773,0 -1.69271,0.35807 -0.76497,0.35807 -1.31835,1.00911 -0.55339,0.65104 -0.89518,1.5625 -0.3418,0.91146 -0.42318,2.00195 z m 20.63801,9.21223 q -0.96029,0.24414 -1.98568,0.3418 -1.02539,0.11393 -2.08333,0.11393 -3.07617,0 -4.58984,-1.38346 -1.51367,-1.39974 -1.51367,-4.2806 v -8.52863 h -4.57356 v -2.3763 h 4.57356 v -4.49219 l 2.83203,-0.73242 v 5.22461 h 7.34049 v 2.3763 h -7.34049 v 8.30077 q 0,1.75781 0.92773,2.63672 0.94401,0.86263 2.76693,0.86263 0.78125,0 1.70898,-0.11394 0.92774,-0.13021 1.93685,-0.39062 z M 598.74609,440.9534 q 0,0.78125 -0.0625,2.03125 -0.0312,1.25 -0.125,2.34375 h -20.875 q 0,2.09375 0.625,3.6875 0.65625,1.59375 1.8125,2.6875 1.1875,1.0625 2.8125,1.625 1.65625,0.5625 3.65625,0.5625 2.3125,0 4.9375,-0.34375 2.65625,-0.375 5.5,-1.1875 v 6.0625 q -1.21875,0.34375 -2.65625,0.625 -1.4375,0.28125 -2.9375,0.5 -1.5,0.21875 -3.03125,0.3125 -1.53125,0.125 -2.96875,0.125 -3.625,0 -6.5,-1.03125 -2.875,-1.03125 -4.875,-3.03125 -2,-2.03125 -3.0625,-5 -1.0625,-2.96875 -1.0625,-6.875 0,-3.875 1.0625,-7.03125 1.0625,-3.1875 3,-5.4375 1.9375,-2.28125 4.6875,-3.5 2.78125,-1.25 6.1875,-1.25 3.375,0 5.96875,1.0625 2.59375,1.03125 4.34375,2.90625 1.75,1.875 2.65625,4.46875 0.90625,2.59375 0.90625,5.6875 z m -7.75,-1.09375 q 0.0312,-1.875 -0.46875,-3.25 -0.5,-1.40625 -1.375,-2.3125 -0.84375,-0.90625 -2,-1.34375 -1.125,-0.4375 -2.4375,-0.4375 -2.875,0 -4.71875,1.9375 -1.84375,1.90625 -2.1875,5.40625 z m 34.21875,19.40625 v -20.6875 q 0,-5.21875 -3.875,-5.21875 -1.9375,0 -3.71875,1.5625 -1.75,1.5625 -3.71875,4.25 v 20.09375 h -7.625 v -31.75 h 6.59375 l 0.1875,4.6875 q 0.96875,-1.21875 2,-2.21875 1.0625,-1 2.28125,-1.6875 1.21875,-0.71875 2.625,-1.09375 1.40625,-0.375 3.15625,-0.375 2.4375,0 4.25,0.8125 1.8125,0.78125 3.03125,2.25 1.21875,1.4375 1.8125,3.5 0.625,2.03125 0.625,4.5625 v 21.3125 z m 15.9375,0 v -5.625 l 9.65625,-9.65625 q 2.71875,-2.71875 4.34375,-4.6875 1.65625,-1.96875 2.53125,-3.5 0.90625,-1.5625 1.1875,-2.875 0.28125,-1.3125 0.28125,-2.71875 0,-1.15625 -0.375,-2.1875 -0.375,-1.0625 -1.09375,-1.8125 -0.71875,-0.78125 -1.8125,-1.21875 -1.09375,-0.46875 -2.5,-0.46875 -2.40625,0 -4.46875,1.0625 -2.0625,1.03125 -3.90625,2.78125 l -4.03125,-5.1875 q 2.65625,-2.46875 5.96875,-3.9375 3.34375,-1.5 7.21875,-1.5 3,0 5.4375,0.78125 2.4375,0.75 4.15625,2.25 1.75,1.5 2.6875,3.75 0.96875,2.25 0.96875,5.1875 0,2.4375 -0.65625,4.5625 -0.65625,2.09375 -1.90625,4.09375 -1.25,2 -3.09375,4 -1.8125,2 -4.15625,4.21875 l -5.9375,5.65625 h 17.21875 v 7.03125 z m 61.6875,-0.3125 q -2.0625,0.46875 -4.15625,0.75 -2.09375,0.28125 -3.96875,0.28125 -3.125,0 -5.40625,-0.65625 -2.25,-0.65625 -3.75,-2 -1.46875,-1.34375 -2.1875,-3.40625 -0.6875,-2.09375 -0.6875,-4.96875 v -15.5 h -8.53125 v -5.9375 h 8.53125 v -8.125 l 7.8125,-2.03125 v 10.15625 h 12.34375 v 5.9375 h -12.34375 v 14.9375 q 0,2.71875 1.25,4.125 1.25,1.375 4.1875,1.375 1.875,0 3.65625,-0.3125 1.78125,-0.3125 3.25,-0.71875 z m 36.65625,-18 q 0,0.78125 -0.0625,2.03125 -0.0312,1.25 -0.125,2.34375 h -20.875 q 0,2.09375 0.625,3.6875 0.65625,1.59375 1.8125,2.6875 1.1875,1.0625 2.8125,1.625 1.65625,0.5625 3.65625,0.5625 2.3125,0 4.9375,-0.34375 2.65625,-0.375 5.5,-1.1875 v 6.0625 q -1.21875,0.34375 -2.65625,0.625 -1.4375,0.28125 -2.9375,0.5 -1.5,0.21875 -3.03125,0.3125 -1.53125,0.125 -2.96875,0.125 -3.625,0 -6.5,-1.03125 -2.875,-1.03125 -4.875,-3.03125 -2,-2.03125 -3.0625,-5 -1.0625,-2.96875 -1.0625,-6.875 0,-3.875 1.0625,-7.03125 1.0625,-3.1875 3,-5.4375 1.9375,-2.28125 4.6875,-3.5 2.78125,-1.25 6.1875,-1.25 3.375,0 5.96875,1.0625 2.59375,1.03125 4.34375,2.90625 1.75,1.875 2.65625,4.46875 0.90625,2.59375 0.90625,5.6875 z m -7.75,-1.09375 q 0.0312,-1.875 -0.46875,-3.25 -0.5,-1.40625 -1.375,-2.3125 -0.84375,-0.90625 -2,-1.34375 -1.125,-0.4375 -2.4375,-0.4375 -2.875,0 -4.71875,1.9375 -1.84375,1.90625 -2.1875,5.40625 z m 37.6875,19.40625 v -21.625 q 0,-1.1875 -0.0625,-2.0625 -0.0625,-0.90625 -0.25,-1.5 -0.1875,-0.59375 -0.5625,-0.875 -0.34375,-0.3125 -0.96875,-0.3125 -0.96875,0 -1.90625,1.3125 -0.9375,1.3125 -2.125,4.46875 v 20.59375 h -6.53125 v -21.625 q 0,-1.1875 -0.0625,-2.0625 -0.0625,-0.90625 -0.25,-1.5 -0.1875,-0.59375 -0.5625,-0.875 -0.375,-0.3125 -1,-0.3125 -0.8125,0 -1.8125,1.3125 -1,1.3125 -2.21875,4.46875 v 20.59375 h -6.59375 v -31.75 h 5.65625 l 0.125,4.625 q 0.6875,-1.40625 1.375,-2.40625 0.6875,-1 1.46875,-1.625 0.78125,-0.65625 1.65625,-0.9375 0.90625,-0.28125 2.03125,-0.28125 2.65625,0 4.03125,1.40625 1.40625,1.375 1.59375,3.84375 0.75,-1.40625 1.46875,-2.40625 0.75,-1 1.53125,-1.625 0.8125,-0.65625 1.71875,-0.9375 0.9375,-0.28125 2.0625,-0.28125 3.46875,0 5.125,2.4375 1.65625,2.40625 1.65625,7.15625 v 22.78125 z m 41.34375,-16.4375 q 0,4.375 -1.25,7.5625 -1.21875,3.1875 -3.4375,5.3125 -2.1875,2.09375 -5.1875,3.125 -3,1 -6.53125,1 -1.1875,0 -2.375,-0.15625 -1.1875,-0.15625 -2.15625,-0.40625 v 12.40625 h -7.625 V 427.5159 h 6.59375 l 0.1875,4.6875 q 0.96875,-1.21875 2,-2.21875 1.0625,-1 2.28125,-1.6875 1.21875,-0.71875 2.625,-1.09375 1.40625,-0.375 3.15625,-0.375 2.8125,0 5,1.125 2.1875,1.125 3.65625,3.21875 1.5,2.0625 2.28125,5.03125 0.78125,2.9375 0.78125,6.625 z m -8,0.3125 q 0,-2.625 -0.375,-4.46875 -0.375,-1.84375 -1.09375,-3.03125 -0.6875,-1.1875 -1.71875,-1.71875 -1,-0.5625 -2.3125,-0.5625 -1.9375,0 -3.71875,1.5625 -1.75,1.5625 -3.71875,4.25 v 13.875 q 0.90625,0.34375 2.21875,0.5625 1.34375,0.21875 2.71875,0.21875 1.8125,0 3.28125,-0.75 1.5,-0.75 2.53125,-2.125 1.0625,-1.375 1.625,-3.34375 0.5625,-2 0.5625,-4.46875 z m 40.8125,6.78125 q 0,2.71875 -1.21875,4.65625 -1.1875,1.90625 -3.1875,3.125 -1.96875,1.1875 -4.5,1.71875 -2.5,0.5625 -5.125,0.5625 -3.5,0 -6.3125,-0.34375 -2.8125,-0.3125 -5.3125,-0.9375 v -6.875 q 2.9375,1.21875 5.84375,1.78125 2.9375,0.53125 5.53125,0.53125 3,0 4.46875,-0.9375 1.5,-0.96875 1.5,-2.5 0,-0.71875 -0.3125,-1.3125 -0.3125,-0.59375 -1.1875,-1.125 -0.84375,-0.5625 -2.40625,-1.125 -1.5625,-0.59375 -4.09375,-1.3125 -2.34375,-0.65625 -4.125,-1.46875 -1.75,-0.84375 -2.90625,-1.96875 -1.15625,-1.125 -1.75,-2.59375 -0.5625,-1.5 -0.5625,-3.5 0,-1.9375 0.875,-3.65625 0.875,-1.71875 2.59375,-3 1.75,-1.3125 4.34375,-2.0625 2.59375,-0.75 6.0625,-0.75 3,0 5.3125,0.3125 2.3125,0.3125 4.09375,0.6875 v 6.21875 q -2.71875,-0.875 -5.125,-1.21875 -2.375,-0.375 -4.71875,-0.375 -2.34375,0 -3.78125,0.84375 -1.40625,0.84375 -1.40625,2.34375 0,0.71875 0.28125,1.28125 0.28125,0.5625 1.09375,1.09375 0.84375,0.53125 2.3125,1.125 1.5,0.5625 3.9375,1.25 2.75,0.78125 4.625,1.6875 1.875,0.875 3,2 1.15625,1.125 1.65625,2.5625 0.5,1.4375 0.5,3.28125 z m 22.0625,-2.1875 q 1.3125,0 2.4375,0.5 1.125,0.46875 1.9375,1.3125 0.84375,0.8125 1.3125,1.9375 0.46875,1.125 0.46875,2.40625 0,1.25 -0.46875,2.375 -0.46875,1.09375 -1.3125,1.9375 -0.8125,0.8125 -1.9375,1.28125 -1.125,0.5 -2.4375,0.5 -1.25,0 -2.34375,-0.5 -1.09375,-0.46875 -1.90625,-1.28125 -0.8125,-0.84375 -1.28125,-1.9375 -0.46875,-1.125 -0.46875,-2.375 0,-1.28125 0.46875,-2.40625 0.46875,-1.125 1.28125,-1.9375 0.8125,-0.84375 1.90625,-1.3125 1.09375,-0.5 2.34375,-0.5 z m 50.625,-26.15625 q -1.375,-0.4375 -3.28125,-0.71875 -1.875,-0.3125 -3.84375,-0.3125 -1.34375,0 -2.5,0.375 -1.15625,0.34375 -2,1.125 -0.84375,0.78125 -1.34375,2 -0.46875,1.1875 -0.46875,2.90625 v 5.125 h 12.46875 v 5.9375 h -12.46875 v 21.25 h -7.6875 v -21.25 h -9.21875 v -5.9375 h 9.21875 v -4.8125 q 0,-3.375 0.96875,-5.78125 1,-2.4375 2.78125,-3.96875 1.8125,-1.5625 4.34375,-2.28125 2.53125,-0.71875 5.65625,-0.71875 2.0625,0 3.90625,0.28125 1.875,0.25 3.46875,0.625 z m -32.84375,5.9375 z m 59.96875,12.34375 q 0.0625,-1.78125 -0.1875,-3.03125 -0.21875,-1.25 -0.75,-2.0625 -0.5,-0.8125 -1.25,-1.1875 -0.75,-0.375 -1.71875,-0.375 -1.6875,0 -3.5,1.40625 -1.78125,1.375 -3.9375,4.5625 v 20.09375 h -7.8125 v -31.75 h 6.90625 l 0.28125,4.625 q 0.78125,-1.21875 1.75,-2.1875 1,-0.96875 2.1875,-1.65625 1.21875,-0.71875 2.6875,-1.09375 1.46875,-0.375 3.21875,-0.375 2.40625,0 4.25,0.84375 1.875,0.8125 3.125,2.4375 1.28125,1.625 1.875,4.09375 0.625,2.4375 0.53125,5.65625 z"></path>
  </g>
</svg>
